<svg xmlns="http://www.w3.org/2000/svg" width="100" height="100" viewBox="0 0 100 100">
  <!-- Background Circle -->
  <circle cx="50" cy="50" r="48" fill="#38a169" />
  <circle cx="50" cy="50" r="45" fill="#ffffff" />
  <circle cx="50" cy="50" r="42" fill="#38a169" />

  <!-- Plant icon -->
  <g fill="#ffffff">
    <!-- Stem -->
    <path d="M50,85 L50,40 C50,40 50,40 50,40" stroke="#ffffff" stroke-width="4" fill="none" />
    
    <!-- Leaves -->
    <path d="M50,60 C40,50 30,60 25,70 C30,65 40,65 50,70" />
    <path d="M50,60 C60,50 70,60 75,70 C70,65 60,65 50,70" />
    
    <path d="M50,50 C40,40 30,50 25,60 C30,55 40,55 50,60" />
    <path d="M50,50 C60,40 70,50 75,60 C70,55 60,55 50,60" />
    
    <path d="M50,40 C40,30 30,40 25,50 C30,45 40,45 50,50" />
    <path d="M50,40 C60,30 70,40 75,50 C70,45 60,45 50,50" />
    
    <!-- Sun -->
    <circle cx="50" cy="25" r="8" />
    <path d="M50,12 L50,17" stroke="#ffffff" stroke-width="2" />
    <path d="M50,33 L50,38" stroke="#ffffff" stroke-width="2" />
    <path d="M37,25 L42,25" stroke="#ffffff" stroke-width="2" />
    <path d="M58,25 L63,25" stroke="#ffffff" stroke-width="2" />
    <path d="M40,15 L44,19" stroke="#ffffff" stroke-width="2" />
    <path d="M56,31 L60,35" stroke="#ffffff" stroke-width="2" />
    <path d="M40,35 L44,31" stroke="#ffffff" stroke-width="2" />
    <path d="M56,19 L60,15" stroke="#ffffff" stroke-width="2" />
  </g>
  
  <!-- Text - if needed, comment out for a cleaner look -->
  <!--
  <text x="50" y="95" font-family="Arial" font-size="10" text-anchor="middle" fill="#ffffff">KRISHI-MITRA</text>
  -->
</svg> 